<?xml version="1.0"?>
<svg width="7" height="12" xmlns="http://www.w3.org/2000/svg" xmlns="http://www.w3.org/2000/svg">
 <g class="layer">
  <title>Layer 1</title>
  <path clip-rule="evenodd" d="m6.68799,5.3035c0.19978,0.18474 0.31201,0.43527 0.31201,0.6965c0,0.26123 -0.11223,0.51176 -0.31201,0.6965l-4.89456,4.5248c-0.19852,0.1798 -0.4658,0.28 -0.74376,0.2787c-0.27795,-0.0013 -0.54412,-0.104 -0.74067,-0.2857c-0.19654,-0.1817 -0.30758,-0.4277 -0.30899,-0.6847c-0.0014,-0.2569 0.10695,-0.504 0.30149,-0.68753l4.15607,-3.84207l-4.15607,-3.84207c-0.19454,-0.18352 -0.30289,-0.43061 -0.30149,-0.68756c0.00141,-0.25696 0.11245,-0.50302 0.30899,-0.68471c0.19655,-0.1817 0.46272,-0.28435 0.74067,-0.28565c0.27796,-0.0013 0.54524,0.09886 0.74376,0.27872l4.89456,4.52477z" fill="#0044CC" fill-rule="evenodd" id="svg_1" transform="rotate(180 3.5 6.00001)"/>
 </g>
</svg>