<?xml version="1.0"?>
<svg width="7" height="12" xmlns="http://www.w3.org/2000/svg" xmlns:svg="http://www.w3.org/2000/svg">
 <g class="layer">
  <title>Layer 1</title>
  <path clip-rule="evenodd" d="m0.31201,5.3035c-0.19978,0.18474 -0.31201,0.43527 -0.31201,0.6965c0,0.26123 0.11223,0.51176 0.31201,0.6965l4.89456,4.5248c0.19852,0.1798 0.4658,0.28 0.74376,0.2787c0.27795,-0.0013 0.54412,-0.104 0.74067,-0.2857c0.19654,-0.1817 0.30758,-0.4277 0.30899,-0.6847c0.0014,-0.2569 -0.10694,-0.504 -0.3015,-0.68753l-4.15606,-3.84207l4.15606,-3.84207c0.19456,-0.18352 0.3029,-0.43061 0.3015,-0.68756c-0.00141,-0.25696 -0.11245,-0.503017 -0.30899,-0.684713c-0.19655,-0.181697 -0.46272,-0.284347 -0.74067,-0.285645c-0.27796,-0.001297 -0.54524,0.098862 -0.74376,0.278714l-4.89456,4.524774z" fill="#7E839A" fill-rule="evenodd" id="svg_1" transform="rotate(180 3.5 6.00001)"/>
 </g>
</svg>